<?xml version="1.0" encoding="UTF-8" standalone="no"?>
<svg width="60px" height="60px" viewBox="0 0 60 60" version="1.1" xmlns="http://www.w3.org/2000/svg" xmlns:xlink="http://www.w3.org/1999/xlink" xmlns:sketch="http://www.bohemiancoding.com/sketch/ns">
    <!-- Generator: Sketch 3.2.2 (9983) - http://www.bohemiancoding.com/sketch -->
    <title>Meds</title>
    <desc>Created with Sketch.</desc>
    <defs></defs>
    <g id="stroked" stroke="none" stroke-width="1" fill="none" fill-rule="evenodd" sketch:type="MSPage">
        <g id="Medical" sketch:type="MSLayerGroup" transform="translate(-260.000000, 3.000000)" stroke-linecap="round" stroke="#ff4500" stroke-width="2">
            <g id="Meds" transform="translate(259.000000, 0.000000)" sketch:type="MSShapeGroup">
                <g id="Rectangle-129-+-Rectangle-129" transform="translate(19.000000, 21.000000) rotate(36.000000) translate(-19.000000, -21.000000) translate(10.000000, 2.000000)">
                    <rect id="Rectangle-129" x="0" y="0" width="17" height="19"></rect>
                    <rect id="Rectangle-129" transform="translate(8.500000, 28.500000) rotate(-180.000000) translate(-8.500000, -28.500000) " x="0" y="19" width="17" height="19"></rect>
                </g>
                <g id="Oval-230-+-Oval-230" transform="translate(42.000000, 38.500000) rotate(-24.000000) translate(-42.000000, -38.500000) translate(28.000000, 24.000000)">
                    <path d="M0,15 C0,22.7319865 6.2680135,29 14,29 C21.7319865,29 28,22.7319865 28,15 L0,15 Z" id="Oval-230"></path>
                    <path d="M0,1 C0,8.7319865 6.2680135,15 14,15 C21.7319865,15 28,8.7319865 28,1 L0,1 Z" id="Oval-230" transform="translate(14.000000, 8.000000) rotate(-180.000000) translate(-14.000000, -8.000000) "></path>
                </g>
                <circle id="Oval-230" cx="47" cy="12" r="7"></circle>
            </g>
        </g>
    </g>
</svg>