<?xml version="1.0" encoding="UTF-8" standalone="no"?>
<svg width="60px" height="60px" viewBox="0 0 60 60" version="1.1" xmlns="http://www.w3.org/2000/svg" xmlns:xlink="http://www.w3.org/1999/xlink" xmlns:sketch="http://www.bohemiancoding.com/sketch/ns">
    <!-- Generator: Sketch 3.2.2 (9983) - http://www.bohemiancoding.com/sketch -->
    <title>Prunes</title>
    <desc>Created with Sketch.</desc>
    <defs></defs>
    <g id="stroked" stroke="none" stroke-width="1" fill="none" fill-rule="evenodd" sketch:type="MSPage">
        <g id="Kitchen" sketch:type="MSLayerGroup" transform="translate(-247.000000, -958.000000)" stroke="#ffbb94" stroke-width="2" stroke-linejoin="round">
            <g id="Prunes" transform="translate(254.000000, 959.000000)" sketch:type="MSShapeGroup">
                <path d="M48.9559246,6.73238725 C48.9559246,6.73238725 30.323383,24.0189081 0.63698734,25.8400556" id="Path-1620" stroke-linecap="round"></path>
                <path d="M18.4417812,19.09556 C18.4417812,19.09556 3.50509684,21.4156379 1.56095199,5.66409962 C-0.383192854,-10.0874387 18.4417812,19.09556 18.4417812,19.09556 Z" id="Path-1621" stroke-linecap="round"></path>
                <path d="M20.1337383,56 C25.7685869,56 30.3365341,49.7649309 30.3365341,42.0735834 C30.3365341,34.3822359 24.1145227,30.2245159 20.1337383,30.2245159 C16.152954,30.2245159 9.93094254,34.3822359 9.93094254,42.0735834 C9.93094254,49.7649309 14.4988898,56 20.1337383,56 Z" id="Oval-717" stroke-linecap="round"></path>
                <path d="M20.1337383,34.6122579 C17.5082461,34.6122579 13.4045717,37.3544466 13.4045717,42.427209" id="Oval-719" stroke-linecap="round"></path>
                <path d="M39.8317807,27 C38.4946002,27 36.4045717,28.2025736 36.4045717,30.427209" id="Oval-720" stroke-linecap="round"></path>
                <path d="M39.7210604,41.748502 C43.8982396,41.748502 47.2845125,37.1263723 47.2845125,31.4246863 C47.2845125,25.7230002 42.6720625,22.6408337 39.7210604,22.6408337 C36.7700583,22.6408337 32.1576084,25.7230002 32.1576084,31.4246863 C32.1576084,37.1263723 35.5438812,41.748502 39.7210604,41.748502 Z" id="Oval-717" stroke-linecap="round" transform="translate(39.721060, 32.194668) rotate(-12.000000) translate(-39.721060, -32.194668) "></path>
                <path d="M18,23 L19,29" id="Line" stroke-linecap="square"></path>
                <path d="M37,16 L38,22" id="Line" stroke-linecap="square"></path>
            </g>
        </g>
    </g>
</svg>