<?xml version="1.0" encoding="iso-8859-1"?>
<!DOCTYPE svg PUBLIC "-//W3C//DTD SVG 1.1//EN" "http://www.w3.org/Graphics/SVG/1.1/DTD/svg11.dtd">
<svg 
 version="1.1" xmlns="http://www.w3.org/2000/svg" xmlns:xlink="http://www.w3.org/1999/xlink" x="0px" y="0px" width="512px"
	 height="512px" viewBox="0 0 512 512" enable-background="new 0 0 512 512" xml:space="preserve"
><g id="e6c6b53d3c8160b22dad35a0f70a068b"><g></g><g fill="#ff4500"><path display="inline" d="M291.771,329.151c0.379,1.519,0.237,2.808-0.403,3.627c-0.645,0.823-1.858,1.276-3.431,1.276h-63.875
		c-1.57,0-2.788-0.453-3.431-1.276c-0.639-0.819-0.782-2.108-0.399-3.635l8.215-32.886c1.187-4.732,6.708-9.045,11.583-9.045h31.938
		c4.874,0,10.396,4.313,11.581,9.037L291.771,329.151z M511.5,347.599c0,41.157-50.521,112.077-191.625,112.077
		c-41.203,0-92.635-16.248-127.75-42.584C106.958,353.217,0.5,376.738,0.5,347.599c0-13.793,46.312-18.114,115.651-14.388
		c0.019-0.092,0.025-0.18,0.045-0.271l24.107-108.488c5.082-22.862,23.66-54.188,41.286-69.61l106.24-92.959
		c17.624-15.422,42.201-11.792,54.614,8.069l61.321,98.112c12.413,19.861,7.24,24.612-11.498,10.561l-17.033-12.775
		c-3.285-2.462-6.604-4.237-9.881-5.431c-16.638-15.164-41.24-28.438-63.188-32.759c-0.324-0.064-0.641-0.147-0.965-0.212
		l45.761,33.01c-7.485,3.15-13.424,10.365-16.123,21.154l-0.632,2.541c-5.681,22.722-1.76,58.452,8.712,79.402l44.479,88.955
		C462.043,347.998,511.5,332.732,511.5,347.599z M308.294,325.019l-8.222-32.902c-3.086-12.301-15.429-21.937-28.104-21.937h-31.938
		c-12.675,0-25.02,9.636-28.107,21.944l-8.215,32.886c-1.661,6.62-0.387,13.271,3.493,18.248c3.884,4.974,10.028,7.83,16.861,7.83
		h63.875c6.832,0,12.979-2.856,16.858-7.83C308.681,338.28,309.953,331.63,308.294,325.019z"></path></g></g></svg>