<?xml version="1.0" encoding="UTF-8" standalone="no"?>
<svg width="60px" height="60px" viewBox="0 0 60 60" version="1.1" xmlns="http://www.w3.org/2000/svg" xmlns:xlink="http://www.w3.org/1999/xlink" xmlns:sketch="http://www.bohemiancoding.com/sketch/ns">
    <!-- Generator: Sketch 3.2.2 (9983) - http://www.bohemiancoding.com/sketch -->
    <title>Necklace</title>
    <desc>Created with Sketch.</desc>
    <defs></defs>
    <g id="stroked" stroke="none" stroke-width="1" fill="none" fill-rule="evenodd" sketch:type="MSPage">
        <g id="Care" sketch:type="MSLayerGroup" transform="translate(-238.000000, -122.000000)" stroke="#ffbb94" stroke-width="2" stroke-linecap="round" stroke-linejoin="round">
            <g id="Necklace" transform="translate(244.000000, 127.000000)" sketch:type="MSShapeGroup">
                <path d="M28.390961,43.3593465 C29.4425045,42.6386457 30.5738745,41.7842695 31.7320624,40.8136075 M36.8868629,35.7869202 C40.0967564,32.1304132 42.8824064,27.7320958 44,23 C47,10.2974508 44.9012756,0 23,0 C1.09872437,0 -1,10.2974508 2,23 C3.09990342,27.6571925 5.8154746,31.9910896 8.9610348,35.61273 M14.1668026,40.7286087 C15.4586136,41.8173633 16.719062,42.7624571 17.8748819,43.5398553" id="Oval-1115" stroke-dasharray="4,4"></path>
                <circle id="Oval-1117" cx="34.5" cy="38.5" r="3.5"></circle>
                <circle id="Oval-1118" cx="11.5" cy="38.5" r="3.5"></circle>
                <path d="M23,52 C23,52 29,49.3137085 29,46 C29,42.6862915 23,40 23,40 C23,40 17,42.6862915 17,46 C17,49.3137085 23,52 23,52 Z" id="Oval-1116"></path>
            </g>
        </g>
    </g>
</svg>